<svg width="139" height="30" viewBox="0 0 139 30" fill="none" xmlns="http://www.w3.org/2000/svg">
<path d="M122.993 0.695312C114.369 0.695312 107.154 3.35709 107.154 7.62605V21.4731C106.795 24.2757 100.302 25.5326 96.4035 25.5326C92.3505 25.5326 85.6601 24.171 85.6601 21.13V3.40766H80.4033V21.1047C80.4033 24.1493 73.7057 25.5398 69.6491 25.5398C65.5925 25.5398 58.8266 24.1493 58.8266 21.1047V3.40766H53.5807V10.1181C53.5779 10.1517 53.5779 10.1856 53.5807 10.2192V21.1155C53.5807 24.2829 47.0591 25.5434 42.83 25.5434C38.6009 25.5434 32.0507 24.2829 32.0507 21.1155V7.63328C32.0327 3.36432 24.5446 0.695312 15.9966 0.695312C7.44855 0.695312 0 3.36432 0 7.63328V29.5884H5.24596V10.3203C5.24596 7.15293 11.8573 5.95386 15.9966 5.95386C20.1359 5.95386 26.7508 7.15293 26.7508 10.3203L26.776 21.5887V23.0875C26.776 27.3565 34.1814 30.0182 42.8193 30.0182C47.9754 30.0182 53.5555 28.2449 56.2144 26.5691C58.9416 28.2449 64.705 30.0182 69.6491 30.0182C75.2364 30.0182 81.2369 28.3497 83.4395 26.9122C85.6421 28.3569 90.1694 30.0182 96.4035 30.0182C103.892 30.0182 112.238 27.3565 112.238 23.0875V20.1476H133.743V29.5884H139V7.63328C139 3.36432 131.627 0.695312 122.993 0.695312ZM133.743 15.6836H112.238V9.5944C112.238 6.42699 118.76 5.1593 122.993 5.1593C127.225 5.1593 133.743 6.42699 133.743 9.5944V15.6836Z" fill="white"/>
</svg>
