<svg id="Livello_1" data-name="Livello 1" xmlns="http://www.w3.org/2000/svg" viewBox="0 0 956.91489 392.97833">
  <line x1="667.09736" y1="32.96672" x2="697.44327" y2="38.42743" style="fill: none;stroke: #0c6d7b;stroke-miterlimit: 10"/>
  <g>
    <g>
      <path d="M120.24314,400.71973c63.83817,39.45227,137.48513,54.052,141.92031,54.90381V468.1886c-55.49215-8.07648-138.04778-50.12158-141.92031-52.107V400.71973m-.25-.44873v15.96319s85.17294,44.01969,142.42031,52.24314v-13.0608S186.31633,441.38831,119.99314,400.271Z" transform="translate(-66.04255 -212.55246)" style="fill: red"/>
      <g>
        <polygon points="196.871 243.214 209.136 238.741 209.136 250.738 196.871 255.211 196.871 243.214" style="fill: #e28813"/>
        <path d="M274.67807,452.00833v10.93195l-11.26462,4.10794v-10.932l11.26462-4.10794m1-1.42911-13.26462,4.83731v13.0608L275.67807,463.64V450.57922Z" transform="translate(-66.04255 -212.55246)" style="fill: #e6393d"/>
      </g>
    </g>
    <g>
      <path d="M262.37354,454.89893c-74.59034-14.82471-133.11915-48.84961-140.91407-54.30762l13.73975-1.71875c47.72363,30.15869,126.3081,48.97461,138.70947,51.81982Z" transform="translate(-66.04255 -212.55246)" style="fill: #f4c484"/>
      <path d="M135.08353,399.39087C181.1207,428.42108,255.63,446.92822,272.15622,450.79916l-9.82236,3.582c-71.42489-14.22283-128.39992-46.21606-139.4894-53.4591l12.23907-1.53119m.23137-1.03674-15.08757,1.88757c.63784,1.21338,61.72563,39.21167,142.18612,55.17486l13.26462-4.83734s-88.19818-19.18811-140.36317-52.22509Z" transform="translate(-66.04255 -212.55246)" style="fill: #e6393d"/>
    </g>
    <g>
      <path d="M261.91357,467.89941c-54.91064-8.0913-136.09228-49.24609-141.42041-51.9707V401.168c62.97217,38.79834,135.31348,53.47314,141.42041,54.66162Z" transform="translate(-66.04255 -212.55246)" style="fill: #f49913"/>
      <path d="M120.99315,402.06165c61.69166,37.77209,132.059,52.52172,140.4203,54.17941v11.07812c-54.03959-8.16128-133.10794-47.97128-140.4203-51.69662V402.06165m-1-1.79065v15.96319s85.17291,44.01969,142.4203,52.24314v-13.0608s-76.09712-14.02822-142.4203-55.14553Z" transform="translate(-66.04255 -212.55246)" style="fill: #e6393d"/>
    </g>
  </g>
  <path d="M368.19876,535.20224l3.34958,2.11459a.88824.88824,0,0,1,.48093.72928.89852.89852,0,0,1-.49527.73129l-3.33524,2.05417v-5.62933m-.25-.45346v6.53039l3.71634-2.28891a1.036,1.036,0,0,0,.01669-1.88482l-3.733-2.35666Z" transform="translate(-66.04255 -212.55246)" style="fill: red"/>
  <path d="M478.55768,194.97451h17.176a23.38842,23.38842,0,0,1,23.38842,23.38842v41.05618a23.38841,23.38841,0,0,1-23.38841,23.38841h-17.176a23.38842,23.38842,0,0,1-23.38842-23.38842V218.36293A23.38842,23.38842,0,0,1,478.55768,194.97451Z" style="fill: #f49913"/>
  <path d="M269.853,449.23248" transform="translate(-66.04255 -212.55246)" style="fill: none;stroke: red;stroke-miterlimit: 10;stroke-width: 0.25px"/>
  <path d="M371.16156,369.85626c2.06174.952,15.84369,7.16065,37.93274,13.53778a405.82022,405.82022,0,0,0,98.99753,15.45606c5.68509.37842,13.07419.57037,21.962.57037,28.78131,0,65.22834-2.01446,69.25586-2.24225l93.55347,69.39118v15.623l.41937.29908,8.65643,6.17285V590.944c-38.76574,4.709-87.40161,7.09644-144.57867,7.09644-49.38638,0-87.17352-1.87-87.57608-1.88987-1.02539-.02423-103.58231-2.64428-193.89423-22.2293-82.19145-17.82392-123.13761-41.18491-147.60215-55.14261-2.56792-1.465-5.00325-2.85447-7.29469-4.13V401.15363l250.16842-31.29737m.1615-1.028L119.99314,400.271V515.23715c24.43485,13.54447,64.22877,39.82837,155.68493,59.66147S469.76068,597.1503,469.76068,597.1503s37.61313,1.8902,87.59961,1.8902c44.63843,0,99.14166-1.50629,145.57867-7.21118V488.14914l-9.0758-6.47192V466.06607l-94.24872-69.90683s-38.88623,2.26123-69.56061,2.26123c-8.18206,0-15.7749-.1607-21.89554-.56818-80.98407-2.41857-136.83523-29.024-136.83523-29.024Z" transform="translate(-66.04255 -212.55246)" style="fill: #0c6d7b"/>
  <path d="M259.94651,571.3098c-4.43485,4.96173,249.85338,47.68377,442.99243,20.51948L599.61445,499.75875s-96.92424,18.16905-173.10932-11.6096L259.94652,571.30982V468.16761" transform="translate(-66.04255 -212.55246)" style="fill: #e6393d"/>
  <line x1="533.57189" y1="287.88322" x2="533.57189" y2="183.60679" style="fill: none;stroke: #0c6d7b;stroke-miterlimit: 10"/>
  <line x1="359.92235" y1="174.27012" x2="206.17533" y2="237.2384" style="fill: none;stroke: #0c6d7b;stroke-miterlimit: 10"/>
  <g>
    <path d="M828.17928,488.00491l-6.12778,8.5038a2.14633,2.14633,0,0,1-2.78507.26067l-6.48088-5.00154c-.78867-.60865-.46354-1.57532.63221-1.87969l12.60866-3.50225C827.47706,485.983,828.87742,487.03607,828.17928,488.00491Z" transform="translate(-66.04255 -212.55246)" style="fill: none;stroke: #f49913;stroke-miterlimit: 10"/>
    <line x1="762.99078" y1="296.15253" x2="762.99078" y2="275.19077" style="fill: none;stroke: #f49913;stroke-miterlimit: 10"/>
  </g>
  <g>
    <path d="M941.66669,441.2384a1.09373,1.09373,0,0,1,.64862.19049l-6.07892,8.436a.97032.97032,0,0,1-.7124.23627,1.105,1.105,0,0,1-.65039-.18262l-6.47553-4.9975a.86357.86357,0,0,1,.28357-.1286l12.60864-3.50226a1.40818,1.40818,0,0,1,.37641-.05176m-.00025-1a2.40887,2.40887,0,0,0-.6438.08826L928.414,443.82892c-1.09576.30438-1.4209,1.27106-.6322,1.8797l6.48083,5.00152a2.08112,2.08112,0,0,0,1.26136.391,1.88268,1.88268,0,0,0,1.52374-.65168l6.12775-8.50378c.59326-.82324-.3285-1.70734-1.509-1.70728Z" transform="translate(-66.04255 -212.55246)" style="fill: #f49913"/>
    <line x1="877.98699" y1="250.0933" x2="877.98699" y2="229.13153" style="fill: none;stroke: #f49913;stroke-miterlimit: 10"/>
  </g>
  <g>
    <polygon points="276.424 365.41 301.906 355.816 301.906 320.08 276.424 328.162 276.424 365.41" style="fill: #b72e35"/>
    <polygon points="230.347 345.899 276.424 365.41 276.424 328.162 230.347 309.781 230.347 345.899" style="fill: #71c3bb"/>
    <polygon points="230.347 309.781 276.424 328.162 301.906 320.08 255.32 301.037 230.347 309.781" style="fill: #e6393d"/>
    <path d="M322.40566,507.8811l6.12779,8.50379a2.1463,2.1463,0,0,0,2.78506.26067l6.48088-5.00153c.78867-.60865.46354-1.57533-.63221-1.87969l-12.60866-3.50226C323.10788,505.85915,321.70752,506.91226,322.40566,507.8811Z" transform="translate(-66.04255 -212.55246)" style="fill: #f49913"/>
    <line x1="255.50906" y1="316.02872" x2="255.50906" y2="295.06695" style="fill: none;stroke: #f49913;stroke-miterlimit: 10"/>
    <line x1="296.03019" y1="339.13435" x2="296.03019" y2="343.33748" style="fill: none;stroke: red;stroke-miterlimit: 10"/>
  </g>
  <g>
    <g>
      <path d="M368.44873,532.29688l-15.79541-6.457c2.17139-2.49316,11.84229-13.10254,19.14746-13.10254a6.6515,6.6515,0,0,1,1.50342.166c2.81738.6543,5.041,2.93555,6.26172,6.42285,1.83105,5.23145,1.03662,11.92676-1.84766,15.57422a3.73732,3.73732,0,0,0-.727,1.584,8.22308,8.22308,0,0,1-8.54248,6.96386Z" transform="translate(-66.04255 -212.55246)" style="fill: #f49913"/>
      <path d="M371.80109,513.23718h-.0001a6.15337,6.15337,0,0,1,1.39014.15329c2.64462.61466,4.74094,2.78134,5.9028,6.10089,1.77918,5.08319,1.01908,11.57434-1.768,15.099a4.24,4.24,0,0,0-.82419,1.792,7.72971,7.72971,0,0,1-7.553,6.55529v-10.9768l-.62164-.25409-14.83386-6.06342c2.81076-3.15082,11.63574-12.40567,18.30783-12.40619m-.0008-1c-8.57013.00067-19.977,13.80393-19.977,13.80393l16.12543,6.59134V543.9397c.16773.006.33179.009.49378.009a8.73435,8.73435,0,0,0,9.03854-7.3642,3.23478,3.23478,0,0,1,.62924-1.3739c5.00476-6.32916,3.70657-20.842-4.69281-22.79416a7.1221,7.1221,0,0,0-1.61722-.17926Z" transform="translate(-66.04255 -212.55246)" style="fill: #71c3bb"/>
    </g>
    <line x1="302.9534" y1="343.12584" x2="302.9534" y2="331.17035" style="fill: #f49913;stroke: #71c3bb;stroke-miterlimit: 10"/>
  </g>
  <g>
    <path d="M159.823,462.52707a1.40518,1.40518,0,0,1,.37619.05179l12.60868,3.50226a.864.864,0,0,1,.28357.12857l-6.47557,4.99743a1.10477,1.10477,0,0,1-.65043.18268.9701.9701,0,0,1-.71238-.2363l-6.07827-8.4364a1.09431,1.09431,0,0,1,.64821-.19m0-1c-1.18051,0-2.10226.884-1.509,1.70727l6.12778,8.50379a1.88269,1.88269,0,0,0,1.52371.65167,2.081,2.081,0,0,0,1.26135-.391l6.48088-5.00156c.78867-.60864.46355-1.57531-.6322-1.87967l-12.60867-3.50225a2.4066,2.4066,0,0,0-.64382-.08826Z" transform="translate(-66.04255 -212.55246)" style="fill: #f49913"/>
    <line x1="91.41737" y1="271.38195" x2="91.41737" y2="250.42019" style="fill: none;stroke: #f49913;stroke-miterlimit: 10"/>
    <path d="M144.49715,479.39322l25.92555,20.209v32.07l-25.92555-18.59558V479.39322m-1-2.04743v36.24415l27.92555,20.03012V499.11377l-27.92555-21.768Z" transform="translate(-66.04255 -212.55246)" style="fill: #71c3bb"/>
    <path d="M199.74452,496.22955v31.50882l-27.32182,4.69519V499.98569l27.32182-3.75614m1-1.14688-29.32182,4.0311v34.50629l29.32182-5.03888V495.08267Z" transform="translate(-66.04255 -212.55246)" style="fill: #b72e35"/>
    <path d="M173.225,475.158l25.01616,19.2594-26.53655,3.64819-25.64394-19.98944L173.225,475.158m.29211-1.03714-30.02,3.22491,27.92555,21.768,29.32182-4.0311-27.2274-20.96179Z" transform="translate(-66.04255 -212.55246)" style="fill: #e6393d"/>
    <line x1="129.69864" y1="303.45166" x2="129.69864" y2="297.52593" style="fill: none;stroke: red;stroke-miterlimit: 10"/>
  </g>
  <g>
    <path d="M220.545,476.29373a7.78766,7.78766,0,0,1,3.26439.82871c2.86232,1.34253,4.67107,3.631,4.83837,6.12167.32661,4.86215-.03151,13.98785-6.09951,20.47714-4.55911,4.87561-11.55649,7.40192-20.80368,7.51325v-16.644l-.39-.30024-3.59381-2.76678c4.00954-1.625,14.02922-6.1727,18.3566-12.56931a5.20678,5.20678,0,0,1,4.42761-2.66046m0-1a6.175,6.175,0,0,0-5.25583,3.10013c-5.236,7.73975-19.54788,12.83685-19.54788,12.83685l5.00332,3.852v17.15451c.12.00077.23886.00116.35787.00116,27.7373,0,29.09845-20.79339,28.54307-29.06125-.18609-2.77038-2.09688-5.40536-5.41148-6.96a8.81419,8.81419,0,0,0-3.68907-.92334Z" transform="translate(-66.04255 -212.55246)" style="fill: #71c3bb"/>
    <path d="M202.33307,494.55756h0c3.13077,0,9.04259.39,13.46013,3.00235a4.6195,4.6195,0,0,1,2.301,2.82586,3.28874,3.28874,0,0,1-.53,2.60489c-1.75473,2.61929-5.60092,5.74161-13.95914,5.74161-.83743,0-1.71451-.03211-2.61055-.09549V494.95966l-.09749-.07508-.36662-.28225c.42778-.02225,1.047-.04474,1.80266-.04477m-.00072-.25c-1.51808,0-2.47882.08914-2.47882.08914l.891.686v13.78638q1.511.11554,2.86055.11322c8.54732,0,12.43039-3.26047,14.16684-5.85248,1.33766-1.9967.56513-4.356-1.85147-5.78506-4.43433-2.62223-10.31106-3.03723-13.58809-3.03717Z" transform="translate(-66.04255 -212.55246)" style="fill: #0c6d7b"/>
  </g>
  <path d="M200.74453,512.23718c9.65758,1.99754.51576,6.06467.51576,6.06467V522.333" transform="translate(-66.04255 -212.55246)" style="fill: none;stroke: red;stroke-miterlimit: 10"/>
  <g>
    <path d="M294.6199,380.44647l10.07816,6.9032v48.058l-10.07816,4.12763V380.44647m-1-1.89709v62.47613l12.07816-4.94671V386.82257l-12.07816-8.27319Z" transform="translate(-66.04255 -212.55246)" style="fill: #71c3bb"/>
    <path d="M371.183,369.85364c1.42475.59558,8.29764,3.46515,12.87964,5.31805l-78.11734,10.60816-9.58505-6.56549,74.82275-9.36072m.14008-1.02533-77.70319,9.72107,12.07816,8.27319,82.29925-11.176c-3.02694-1.108-16.67422-6.81824-16.67422-6.81824Z" transform="translate(-66.04255 -212.55246)" style="fill: red"/>
    <path d="M386.99731,376.7915v24.883l-80.29925,32.9137V387.69592l80.29925-10.90442m1-1.14495-82.29925,11.176V436.0788l82.29925-33.73346V375.64655Z" transform="translate(-66.04255 -212.55246)" style="fill: #b72e35"/>
    <polygon points="244.077 176.27 278.489 171.695 278.489 195.136 244.077 198.522 244.077 176.27" style="fill: none;stroke: #f49913;stroke-miterlimit: 10;stroke-width: 0.25px"/>
    <polygon points="282.067 171.151 316.472 166.757 316.472 189.653 282.067 194.551 282.067 171.151" style="fill: none;stroke: #f49913;stroke-miterlimit: 10;stroke-width: 0.25px"/>
    <line x1="274.76607" y1="185.80169" x2="274.76607" y2="181.85857" style="fill: none;stroke: red;stroke-miterlimit: 10"/>
    <line x1="284.10366" y1="183.83013" x2="284.10366" y2="179.88701" style="fill: none;stroke: red;stroke-miterlimit: 10"/>
    <polygon points="244.077 221.715 244.077 201.747 278.489 197.877 278.489 207.622 244.077 221.715" style="fill: none;stroke: #f49913;stroke-miterlimit: 10;stroke-width: 0.25px"/>
    <polygon points="282.067 206.156 282.067 197.235 316.472 192.065 282.067 206.156" style="fill: none;stroke: #f49913;stroke-miterlimit: 10;stroke-width: 0.25px"/>
  </g>
  <g>
    <polygon points="311.447 194.12 331.81 200.356 331.81 307.201 311.447 300.325 311.447 194.12" style="fill: #71c3bb"/>
    <polygon points="311.447 194.12 359.875 174.259 381.282 178.806 331.81 200.356 311.447 194.12" style="fill: #e6393d"/>
    <polygon points="330.96 307.631 381.282 282.126 381.282 178.806 330.96 200.16 330.96 307.631" style="fill: #b72e35"/>
    <polygon points="334.602 201.303 355.081 192.374 355.081 218.194 334.602 227.506 334.602 201.303" style="fill: #f49913"/>
    <polygon points="334.602 229.206 355.081 219.846 355.081 244.396 334.602 253.514 334.602 229.206" style="fill: #f49913"/>
    <polygon points="334.661 255.642 355.139 246.283 355.139 270.638 334.661 279.95 334.661 255.642" style="fill: #f49913"/>
    <polygon points="357.641 191.735 378.12 183.042 378.12 207.368 357.641 216.68 357.641 191.735" style="fill: #f49913"/>
    <polygon points="357.641 218.381 378.12 209.021 378.12 233.571 357.641 242.688 357.641 218.381" style="fill: #f49913"/>
    <polygon points="357.699 244.817 378.178 235.458 378.178 259.813 357.699 269.125 357.699 244.817" style="fill: #f49913"/>
    <polygon points="334.661 282.167 378.178 261.982 378.178 281.601 334.661 303.633 334.661 282.167" style="fill: #f49913"/>
    <line x1="352.4049" y1="231.2545" x2="352.4049" y2="235.45762" style="fill: none;stroke: red;stroke-miterlimit: 10"/>
    <line x1="360.78256" y1="228.47303" x2="360.78256" y2="232.67616" style="fill: none;stroke: red;stroke-miterlimit: 10"/>
    <line x1="352.35703" y1="203.68171" x2="352.35703" y2="207.88484" style="fill: none;stroke: red;stroke-miterlimit: 10"/>
    <line x1="360.73469" y1="200.90024" x2="360.73469" y2="205.10337" style="fill: none;stroke: red;stroke-miterlimit: 10"/>
    <line x1="352.08492" y1="256.29506" x2="352.08492" y2="260.49819" style="fill: none;stroke: red;stroke-miterlimit: 10"/>
    <line x1="360.46258" y1="253.51359" x2="360.46258" y2="257.71672" style="fill: none;stroke: red;stroke-miterlimit: 10"/>
    <line x1="360.7391" y1="272.37455" x2="355.69127" y2="274.70547" style="fill: none;stroke: red;stroke-miterlimit: 10"/>
  </g>
  <path d="M985.68516,401.47371v98.962C960.63179,524.335,921.42769,542.404,880.10608,555.89109c-84.18869,27.47867-177.16714,35.93819-177.16714,35.93819" transform="translate(-66.04255 -212.55246)" style="fill: none;stroke: #0c6d7b;stroke-miterlimit: 10"/>
  <polyline points="814.064 236.858 814.064 343.339 781.411 332.261" style="fill: none;stroke: #0c6d7b;stroke-miterlimit: 10"/>
  <g>
    <path d="M751.28265,561.50858c.9065,0,1.67231.49658,1.67231,1.08441v1.43039c0,.54293-.65509,1.01623-1.49134,1.07751L703.189,568.639v-3.40348l47.89527-3.7192q.10015-.00774.19842-.00769m0-.25q-.10785,0-.21777.00845l-48.09161,3.73443c-.01953.00153-.03431.013-.03431.02659v3.84967c0,.01489.01752.02673.03852.02673l.00415-.00015,48.50024-3.55408c.97962-.07178,1.72309-.64429,1.72309-1.32684V562.593c0-.74466-.87476-1.33441-1.92231-1.33441Z" transform="translate(-66.04255 -212.55246)" style="fill: red"/>
    <path d="M751.7981,556.25992c.62707,0,1.15686.33276,1.15686.72662v3.24112c0,.35989-.4488.67667-1.02173.72119L703.189,564.734v-4.60022l48.46528-3.86807q.07251-.00578.14386-.00574m-.00007-.25c-.05395,0-.10864.00213-.16369.00653L702.939,559.90289v5.10123l49.01362-3.806c.71313-.05539,1.25238-.47321,1.25238-.97043v-3.24112c0-.54519-.64045-.97665-1.40693-.97662Z" transform="translate(-66.04255 -212.55246)" style="fill: red"/>
    <path d="M706.34558,520.648l45.79785,34.7514c.066.05011.09253.09946.07874.14664-.02576.08786-.16394.18576-.37836.20288L703.189,559.63214V520.648h3.15662m.08411-.25H702.939v39.50488l48.92475-3.90475c.55951-.04465.81061-.50971.43085-.79788L706.42969,520.398Z" transform="translate(-66.04255 -212.55246)" style="fill: red"/>
    <path d="M724.01886,536.58536a5.81822,5.81822,0,0,1,3.59387,1.13476l11.99426,9.62653a1.06686,1.06686,0,0,1,.455,1.15805,1.97786,1.97786,0,0,1-1.8158,1.14368L703.189,553.01669V537.52722l20.51569-.93472q.15756-.00718.31421-.00714m0-.25q-.16251,0-.32562.00741l-20.75428.94559v16.00351l35.33112-3.39465c1.89215-.1818,2.7417-1.74366,1.49341-2.74555l-11.99426-9.62652a6.07763,6.07763,0,0,0-3.75037-1.18979Z" transform="translate(-66.04255 -212.55246)" style="fill: red"/>
  </g>
  <g>
    <path d="M846.45367,522.043v34.925H816.572V522.043h29.88165m1-1H815.572v36.925h31.88165V521.043Z" transform="translate(-66.04255 -212.55246)" style="fill: #b72e35"/>
    <path d="M819.16284,498.50131,844.716,520.043H815.94928l-24.4884-21.54169h27.702m.3653-1H788.81006L815.572,521.043h31.88165l-27.92553-23.54169Z" transform="translate(-66.04255 -212.55246)" style="fill: #e6393d"/>
    <path d="M789.81006,499.71283l24.762,21.78235v34.868l-3.58508-1.75955V522.36826l-.33484-.29825-20.842-18.56729v-3.78989m-1-2.21152v6.4498l21.17688,18.86557v32.41013L815.572,557.968V521.043l-26.762-23.54169Z" transform="translate(-66.04255 -212.55246)" style="fill: #0c6d7b"/>
    <line x1="754.64915" y1="329.12982" x2="754.64915" y2="324.77623" style="fill: none;stroke: red;stroke-miterlimit: 10"/>
  </g>
  <polyline points="743.944 310.264 743.944 326.953 723.041 326.953" style="fill: none;stroke: #71c3bb;stroke-miterlimit: 10"/>
  <g>
    <path d="M802.191,523.86478s3.95612,3.86986,0,6.5304c-3.3627,2.26145-15.34232,7.37713-26.47076-1.48708a23.581,23.581,0,0,1-7.111-9.25256c-2.22955-5.24718-6.41072-15.23-6.154-15.70444.12467-.23035.51648-.29616.96872-.28559a3.11281,3.11281,0,0,1,2.43744,1.1359L777.11622,520.398s8.72673-4.25275,15.35905-1.60233A42.77983,42.77983,0,0,1,802.191,523.86478Z" transform="translate(-66.04255 -212.55246)" style="fill: none;stroke: #71c3bb;stroke-miterlimit: 10"/>
    <path d="M776.98807,520.74982s3.21159,9.726,12.52011,9.40349,11.05386-3.22489,11.05386-3.22489,1.98267-3.21161-1.16356-4.84665S789.031,514.945,776.98807,520.74982Z" transform="translate(-66.04255 -212.55246)" style="fill: none;stroke: #71c3bb;stroke-miterlimit: 10"/>
  </g>
  <polyline points="722.767 321.374 722.767 332.261 717.154 332.261 727.654 332.261" style="fill: none;stroke: red;stroke-miterlimit: 10"/>
  <path d="M788.89731,518.48325" transform="translate(-66.04255 -212.55246)" style="fill: none;stroke: red;stroke-miterlimit: 10;stroke-width: 0.25px"/>
  <line x1="722.76749" y1="291.39864" x2="722.76749" y2="305.59916" style="fill: none;stroke: #71c3bb;stroke-miterlimit: 10"/>
  <g>
    <path d="M744.858,398.11859l31.44452,8.30792c-2.43963,1.25531-12.26178,6.05579-19.77191,6.05579a13.50924,13.50924,0,0,1-3.24213-.3606c-7.66125-1.90594-21.3667-6.09137-24.4956-7.05291l16.06512-6.9502m-.01983-.26379L728.072,405.10828s16.40625,5.07923,25.15619,7.256a13.7207,13.7207,0,0,0,3.30249.368c8.76154,0,20.45746-6.38324,20.45746-6.38324l-32.1499-8.49426Z" transform="translate(-66.04255 -212.55246)" style="fill: red"/>
    <line x1="710.94552" y1="193.79658" x2="710.94552" y2="308.19736" style="fill: none;stroke: red;stroke-miterlimit: 10;stroke-width: 0.25px"/>
    <path d="M770.62747,523.39585a25.79428,25.79428,0,0,1-19.28421,2.32324c-11.17022-2.9024-23.27129-7.23584-23.27129-7.23584V405.10831" transform="translate(-66.04255 -212.55246)" style="fill: none;stroke: red;stroke-miterlimit: 10;stroke-width: 0.25px"/>
    <line x1="690.30404" y1="202.47238" x2="690.30404" y2="311.60393" style="fill: none;stroke: red;stroke-miterlimit: 10;stroke-width: 0.25px"/>
    <polygon points="664.124 219.645 664.124 194.975 687.162 201.565 687.162 225.208 664.124 219.645" style="fill: none;stroke: #f49913;stroke-miterlimit: 10;stroke-width: 0.25px"/>
    <polygon points="664.124 246.792 664.124 222.122 687.162 227.747 687.162 252.355 664.124 246.792" style="fill: none;stroke: #f49913;stroke-miterlimit: 10;stroke-width: 0.25px"/>
    <polygon points="664.157 274.186 664.157 249.515 687.196 255.144 687.196 280.978 664.157 274.186" style="fill: none;stroke: #f49913;stroke-miterlimit: 10;stroke-width: 0.25px"/>
    <polygon points="664.124 301.952 664.124 277.282 687.162 283.873 687.162 308.463 664.124 301.952" style="fill: none;stroke: #f49913;stroke-miterlimit: 10;stroke-width: 0.25px"/>
    <line x1="667.61453" y1="210.85708" x2="667.61453" y2="206.42286" style="fill: none;stroke: red;stroke-miterlimit: 10"/>
    <line x1="667.61453" y1="237.2384" x2="667.61453" y2="232.80418" style="fill: none;stroke: red;stroke-miterlimit: 10"/>
    <line x1="667.61453" y1="264.77317" x2="667.61453" y2="260.33895" style="fill: none;stroke: red;stroke-miterlimit: 10"/>
    <line x1="667.61453" y1="293.37389" x2="667.61453" y2="288.93967" style="fill: none;stroke: red;stroke-miterlimit: 10"/>
  </g>
  <polyline points="554.475 199.111 576.158 194.975 556.306 180.654" style="fill: none;stroke: red;stroke-miterlimit: 10;stroke-width: 0.25px"/>
  <path d="M642.20091,427.57442V407.527s-1.39628-9.785,16.75533-13.11594c9.72407-1.78446,15.441,1.78322,18.65339,5.48072a14.515,14.515,0,0,1,3.687,9.62658v46.25274Z" transform="translate(-66.04255 -212.55246)" style="fill: none;stroke: #f49913;stroke-miterlimit: 10"/>
  <path d="M391.779,400.79615" transform="translate(-66.04255 -212.55246)" style="fill: none;stroke: red;stroke-miterlimit: 10;stroke-width: 0.25px"/>
  <path d="M391.779,400.79615s-1.43164-10.19984.83731-12.6185,18.324-1.63476,19.63406,4.26182" transform="translate(-66.04255 -212.55246)" style="fill: none;stroke: #f49913;stroke-miterlimit: 10"/>
  <line x1="618.97753" y1="169.4979" x2="618.97753" y2="248.08292" style="fill: none;stroke: red;stroke-miterlimit: 10;stroke-width: 0.25px"/>
  <line x1="662.02942" y1="292.87226" x2="636.89642" y2="282.53925" style="fill: none;stroke: #0c6d7b;stroke-miterlimit: 10"/>
  <line x1="53.95059" y1="302.68465" x2="77.4546" y2="301.03748" style="fill: none;stroke: #0c6d7b;stroke-miterlimit: 10"/>
  <line x1="152.381" y1="295.39918" x2="193.90397" y2="292.3258" style="fill: none;stroke: #0c6d7b;stroke-miterlimit: 10"/>
  <line x1="193.84674" y1="255.94268" x2="193.90396" y2="358.75735" style="fill: none;stroke: #0c6d7b;stroke-miterlimit: 10"/>
  <g>
    <polygon points="727.108 251.663 727.108 239.964 737.408 243.572 737.408 255.134 727.108 251.663" style="fill: #e28813"/>
    <path d="M793.65,453.22147l9.3,3.25784V466.9899l-9.3-3.13373v-10.6347m-1-1.40989v12.76288l11.3,3.80765V455.77l-11.3-3.95844Z" transform="translate(-66.04255 -212.55246)" style="fill: #e6393d"/>
  </g>
  <path d="M870.14578,430.99242l-185.1257-48.94206c-14.4282,5.48231-85.40563,14.10888-85.40563,14.10888" transform="translate(-66.04255 -212.55246)" style="fill: none;stroke: #0c6d7b;stroke-miterlimit: 10"/>
  <path d="M900.86131,426.8763" transform="translate(-66.04255 -212.55246)" style="fill: none;stroke: red;stroke-miterlimit: 10;stroke-width: 0.25px"/>
  <polygon points="618.732 169.432 671.047 147.347 671.047 173.528 692.922 179.878 692.922 189.291 618.732 169.432" style="fill: none;stroke: #0c6d7b;stroke-miterlimit: 10"/>
  <path d="M700.52325,375.72687l57.65809,16.73657-13.35737,5.129-59.035-15.59754,14.73425-6.26806m-.01586-.265-15.48731,6.58844L744.8382,397.8548l14.1264-5.42432-58.45721-16.96857Z" transform="translate(-66.04255 -212.55246)" style="fill: red"/>
  <path d="M714.49937,379.52341s7.58771-8.70559,15.1797-5.13833c2.588,1.216,3.978,3.33768,3.978,5.5043v5.195" transform="translate(-66.04255 -212.55246)" style="fill: none;stroke: #f49913;stroke-miterlimit: 10"/>
  <path d="M870.15,430.99" transform="translate(-66.04255 -212.55246)" style="fill: none;stroke: red;stroke-miterlimit: 10;stroke-width: 0.25px"/>
  <path d="M983.94,324.32l-239.81,7.74c.46,8.39-7.04,27.84-7.04,27.84l238.12,18.84" transform="translate(-66.04255 -212.55246)" style="fill: none;stroke: #0c6d7b;stroke-miterlimit: 10"/>
  <path d="M936.01727,456.77106l22.92578,17.15606H928.791l-21.25855-17.15606h28.4848m.33277-1h-31.649l23.73676,19.15606h33.51062L936.35,455.77106Z" transform="translate(-66.04255 -212.55246)" style="fill: #e6393d"/>
  <path d="M960.94843,475.92712v34.925H929.43781v-34.925h31.51062m1-1H928.43781v36.925h33.51062v-36.925Z" transform="translate(-66.04255 -212.55246)" style="fill: #b72e35"/>
  <line x1="838.65851" y1="265.62978" x2="838.65851" y2="243.21861" style="fill: none;stroke: #71c3bb;stroke-miterlimit: 10"/>
  <polyline points="838.659 278.852 838.659 284.099 862.395 284.099" style="fill: none;stroke: #71c3bb;stroke-miterlimit: 10"/>
  <g>
    <path d="M903.71942,479.08032h0a30.527,30.527,0,0,1,7.249.68527c3.0517.78315,6.433,3.53846,6.238,5.08307-.13788,1.09159-2.4873,2.258-8.668,2.258-1.21692,0-2.563-.04529-4.00079-.13461a10.91935,10.91935,0,0,1-6.50257-2.39145,13.9094,13.9094,0,0,1-3.58758-4.94242,88.57635,88.57635,0,0,1,9.272-.55789m-.00091-1a90.43146,90.43146,0,0,0-10.65308.71665,14.898,14.898,0,0,0,4.30389,6.52987,11.90867,11.90867,0,0,0,7.10627,2.64331c1.49737.093,2.847.13654,4.0628.13654,16.34906,0,8.23883-7.88281,2.67865-9.30972a31.9831,31.9831,0,0,0-7.49853-.71665Z" transform="translate(-66.04255 -212.55246)" style="fill: #71c3bb"/>
    <path d="M880.10608,468.92977s8.30508-.64391,12.95934,9.86721" transform="translate(-66.04255 -212.55246)" style="fill: none;stroke: #71c3bb;stroke-miterlimit: 10"/>
    <path d="M880.10608,481.37689s4.23261,8.14284,12.02849,9.51342,25.2823.44342,26.08032-5.84511" transform="translate(-66.04255 -212.55246)" style="fill: none;stroke: #71c3bb;stroke-miterlimit: 10"/>
  </g>
  <line x1="835.53967" y1="278.85171" x2="835.53967" y2="291.39864" style="fill: none;stroke: red;stroke-miterlimit: 10"/>
  <line x1="830.74627" y1="291.39864" x2="840.31659" y2="291.39864" style="fill: none;stroke: red;stroke-miterlimit: 10"/>
  <line x1="919.64261" y1="287.88322" x2="895.90589" y2="286.29909" style="fill: none;stroke: #0c6d7b;stroke-miterlimit: 10"/>
  <path d="M741.04059,351.57135l80.74554,7.20709v6.82086L738.459,359.00464l2.58161-7.43329m-.68854-1.06543-3.26245,9.39349,85.69653,6.78217v-8.81787l-82.43408-7.35779Z" transform="translate(-66.04255 -212.55246)" style="fill: #e6393d"/>
  <g>
    <path d="M993.8252,352.36279c-1.06641-7.19043-7.78614-10.31933-9.38477-10.96631V325.5791c6.69238,7.27149,10.083,15.17236,9.81934,22.91358A23.94063,23.94063,0,0,1,993.8252,352.36279Z" transform="translate(-66.04255 -212.55246)" style="fill: #e28813"/>
    <path d="M984.94,326.88556c6.02643,6.90167,9.068,14.3241,8.8205,21.59393q-.01968.645-.0752,1.28864c-1.93609-5.31342-6.92132-7.90912-8.7453-8.703V326.88556m-1-2.56555v17.42s10.6,3.57,9.44,14.18a24.70924,24.70924,0,0,0,1.38-7.41c.38-11.16-6.61-19.83-10.82-24.19Z" transform="translate(-66.04255 -212.55246)" style="fill: #e6393d"/>
  </g>
  <path d="M1001.1,323.98l-17.16.34" transform="translate(-66.04255 -212.55246)" style="fill: none;stroke: red;stroke-miterlimit: 10;stroke-width: 0.25px"/>
  <polygon points="678.087 119.512 669.942 111.772 796.437 108.75 804.103 115.445 678.087 119.512" style="fill: none;stroke: #0c6d7b;stroke-miterlimit: 10"/>
  <g>
    <path d="M950.676,312.48157l2.64477,2.59607V325.063l-30.65845.9895V312.48157H950.676m.10217-.25H922.41235v14.0791l31.15845-1.00562V314.97272l-2.7926-2.74115Z" transform="translate(-66.04255 -212.55246)" style="fill: red"/>
    <polyline points="860.999 113.385 860.999 102.279 887.528 102.42" style="fill: none;stroke: red;stroke-miterlimit: 10;stroke-width: 0.25px"/>
    <line x1="856.36979" y1="99.6791" x2="860.99895" y2="102.27916" style="fill: none;stroke: red;stroke-miterlimit: 10;stroke-width: 0.25px"/>
  </g>
  <path d="M1001.10265,323.98492s-3.426-11.38629-31.35148-28.55882l.45858,29.3607" transform="translate(-66.04255 -212.55246)" style="fill: none;stroke: #0c6d7b;stroke-miterlimit: 10"/>
  <polygon points="669.942 111.772 615.254 92.101 690.304 58.884 742.781 70.171 773.033 88.311 773.033 109.309 669.942 111.772" style="fill: none;stroke: #0c6d7b;stroke-miterlimit: 10"/>
  <path d="M808.82335,322.58456V282.72383l57.72829-21.05228a38.41,38.41,0,0,1,26.04856.16451c22.0787,8.42292,65.56105,25.4853,77.02774,33.46484L839.076,300.86383l31.06975,27.13368" transform="translate(-66.04255 -212.55246)" style="fill: none;stroke: #0c6d7b;stroke-miterlimit: 10"/>
  <line x1="813.0294" y1="46.93383" x2="813.0294" y2="86.60711" style="fill: none;stroke: #0c6d7b;stroke-miterlimit: 10"/>
  <path d="M760.18635,323.74663V297.805c0-4.16539,2.27783-8.2314,6.61162-11.11817a20.92692,20.92692,0,0,1,15.49611-3.02849c15.66173,2.57918,17.68618,15.50122,17.68618,15.50122v23.63627" transform="translate(-66.04255 -212.55246)" style="fill: none;stroke: #f49913;stroke-miterlimit: 10"/>
  <polyline points="615.254 170.664 615.254 92.101 584.536 85.328 584.536 176.541" style="fill: none;stroke: #0c6d7b;stroke-miterlimit: 10"/>
  <path d="M696.33551,322.8573v.25a24.67757,24.67757,0,0,1,2.851.1759,23.8276,23.8276,0,0,1,15.11713,7.65137,20.88862,20.88862,0,0,1,5.83881,14.32886v21.7055l-36.22577,15.17578,1.30511-44.86889c.02564-.88086.01331-1.71485-.03747-2.54962-.09949-1.6319-.04212-5.73438,2.63171-8.57636,1.89911-2.01855,4.76471-3.04217,8.51733-3.04254l.00214-.25m-.00214,0c-11.22515.0011-11.57379,9.00928-11.39862,11.88409.0514.84369.06171,1.68293.03717,2.52716l-1.3164,45.2566,36.73694-15.3899V345.26343a21.15845,21.15845,0,0,0-5.90534-14.49866,24.14967,24.14967,0,0,0-15.27154-7.72986,24.77682,24.77682,0,0,0-2.88221-.17761Z" transform="translate(-66.04255 -212.55246)" style="fill: red"/>
  <path d="M705.83063,331.80786V347.132l-21.137,8.32422.51288-16.7099,20.62415-6.93842m.25-.3479-21.11872,7.1048-.52984,17.26312,21.64856-8.52569V331.46Z" transform="translate(-66.04255 -212.55246)" style="fill: red"/>
  <path d="M705.83063,353.05341v16.99792l-21.82288,8.942.49158-17.85138,21.3313-8.0885m.25-.36219-21.8266,8.27631-.50678,18.40265,22.33338-9.15112V352.69122Z" transform="translate(-66.04255 -212.55246)" style="fill: red"/>
  <line x1="618.30905" y1="146.0413" x2="654.34989" y2="131.38235" style="fill: none;stroke: red;stroke-miterlimit: 10;stroke-width: 0.25px"/>
  <line x1="618.97753" y1="119.51215" x2="640.03805" y2="112.26998" style="fill: none;stroke: red;stroke-miterlimit: 10;stroke-width: 0.25px"/>
  <line x1="635.98142" y1="127.61468" x2="635.98142" y2="125.31695" style="fill: none;stroke: red;stroke-miterlimit: 10"/>
  <line x1="637.94363" y1="96.29296" x2="637.94363" y2="93.99523" style="fill: none;stroke: red;stroke-miterlimit: 10"/>
  <line x1="648.06664" y1="85.22757" x2="648.06664" y2="82.92984" style="fill: none;stroke: red;stroke-miterlimit: 10"/>
  <line x1="648.06664" y1="93.24948" x2="648.06664" y2="90.95174" style="fill: none;stroke: red;stroke-miterlimit: 10"/>
  <line x1="648.06664" y1="100.50547" x2="648.06664" y2="98.20774" style="fill: none;stroke: red;stroke-miterlimit: 10"/>
  <line x1="636.89642" y1="150.2292" x2="636.89642" y2="147.93147" style="fill: none;stroke: red;stroke-miterlimit: 10"/>
  <line x1="647.01944" y1="139.10236" x2="647.01944" y2="136.80463" style="fill: none;stroke: red;stroke-miterlimit: 10"/>
  <line x1="647.01944" y1="146.72115" x2="647.01944" y2="144.42342" style="fill: none;stroke: red;stroke-miterlimit: 10"/>
  <line x1="647.01944" y1="153.47824" x2="647.01944" y2="151.18051" style="fill: none;stroke: red;stroke-miterlimit: 10"/>
  <path d="M707.22687,297.00623v16.70861L685.711,305.97528l21.51587-8.969m.25-.37507-22.45679,9.36127,22.45679,8.078V296.63116Z" transform="translate(-66.04255 -212.55246)" style="fill: red"/>
  <path d="M752.955,278.50879v23.15173l-30.83527,12.04389V291.83722L752.955,278.50879m.25-.38043-31.33527,13.54455v22.39752L753.205,301.8313V278.12836Z" transform="translate(-66.04255 -212.55246)" style="fill: red"/>
  <line x1="662.2166" y1="99.02233" x2="662.2166" y2="76.59902" style="fill: none;stroke: red;stroke-miterlimit: 10;stroke-width: 0.25px"/>
  <line x1="680.64645" y1="91.76633" x2="680.64645" y2="68.39571" style="fill: none;stroke: red;stroke-miterlimit: 10;stroke-width: 0.25px"/>
  <path d="M752.955,308.05139v15.45349l-16.93128.56855-13.90484-5.00171L752.955,308.05139m.25-.35486-31.82685,11.37439,14.60608,5.254,17.22077-.57825V307.69653Z" transform="translate(-66.04255 -212.55246)" style="fill: red"/>
  <path d="M644.99346,569.7388v3.64753c0,.74785.92516,1.33491,2.00032,1.26931l48.84745-2.96575c1.21946-.07441,2.1453-.79291,2.11437-1.64086l.09641-2.97076Z" transform="translate(-66.04255 -212.55246)" style="fill: #71c3bb;stroke: #f49913;stroke-miterlimit: 10"/>
  <path d="M677.57327,542.4885s6.98139,2.25742,9.0758,8.7072C686.64907,551.1957,685.71822,545.22966,677.57327,542.4885Z" transform="translate(-66.04255 -212.55246)" style="fill: none;stroke: red;stroke-miterlimit: 10;stroke-width: 0.25px"/>
  <path d="M911.6698,517.45151h-.00006c.88055,0,1.62439.4801,1.62439,1.04837v1.51138a1.06141,1.06141,0,0,1-.76184.88391l-32.17621,13.21561v-3.78305l30.44806-12.70761a2.2665,2.2665,0,0,1,.86566-.16861m-.00018-.25a2.50387,2.50387,0,0,0-.9618.18789l-30.60174,12.77176v4.32257l32.52118-13.3573a1.29431,1.29431,0,0,0,.91687-1.11517v-1.51138c0-.75846-.8985-1.29843-1.87451-1.29837Z" transform="translate(-66.04255 -212.55246)" style="fill: red"/>
  <path d="M912.56165,521.49905c.38336,0,.73248.227.73248.47614v1.146c0,.13177-.12164.26391-.31738.34487l-32.62067,13.48868v-2.30346l31.85315-13.08292a.90716.90716,0,0,1,.35242-.06934m0-.25a1.16155,1.16155,0,0,0-.449.08875l-32.00653,13.14593v2.84494l32.96619-13.63156a.66854.66854,0,0,0,.47186-.57589v-1.146c0-.404-.4707-.72614-.98248-.72614Z" transform="translate(-66.04255 -212.55246)" style="fill: red"/>
  <path d="M896.15015,508.24347h-.00006a13.67461,13.67461,0,0,1,5.325,1.2583l.43622.18774c4.40264,1.89429,10.43225,4.48865,10.5354,6.29313.02081.36441-.23175.69216-.7425.98748l-31.34814,12.81873V514.91367l12.85388-6.0019a5.46816,5.46816,0,0,1,2.94019-.6683m-.00049-.25a5.59792,5.59792,0,0,0-3.08423.71432l-12.95935,6.0467v15.40667l31.69275-12.95965c3.60705-2.06778-4.42157-5.43006-10.22486-7.92935a13.7888,13.7888,0,0,0-5.42431-1.27869Z" transform="translate(-66.04255 -212.55246)" style="fill: red"/>
  <polygon points="828.768 295.441 814.064 291.672 814.064 302.202 828.768 295.441" style="fill: none;stroke: red;stroke-miterlimit: 10;stroke-width: 0.25px"/>
  <polyline points="550.88 181.385 550.88 80.081 696.238 21.153 726.607 26.313 584.536 85.328" style="fill: none;stroke: #0c6d7b;stroke-miterlimit: 10"/>
  <polyline points="596.462 61.602 550.88 80.081 584.536 85.328" style="fill: none;stroke: #0c6d7b;stroke-miterlimit: 10"/>
  <polyline points="632.666 46.925 662.217 53.06 690.304 58.884 690.304 111.286" style="fill: none;stroke: #0c6d7b;stroke-miterlimit: 10"/>
  <line x1="550.87979" y1="106.71864" x2="584.53602" y2="113.38487" style="fill: none;stroke: #0c6d7b;stroke-miterlimit: 10"/>
  <line x1="550.87979" y1="130.93447" x2="584.53602" y2="137.95349" style="fill: none;stroke: #0c6d7b;stroke-miterlimit: 10"/>
  <line x1="550.87979" y1="154.1291" x2="584.53602" y2="160.97431" style="fill: none;stroke: #0c6d7b;stroke-miterlimit: 10"/>
  <polygon points="707.574 62.599 707.574 55.659 718.23 57.111 718.23 64.891 707.574 62.599" style="fill: none;stroke: red;stroke-miterlimit: 10;stroke-width: 0.25px"/>
  <polygon points="724.862 46.934 733.938 48.403 718.23 57.111 707.574 55.659 724.862 46.934" style="fill: none;stroke: red;stroke-miterlimit: 10;stroke-width: 0.25px"/>
  <line x1="733.93771" y1="68.26934" x2="733.93771" y2="48.40339" style="fill: none;stroke: red;stroke-miterlimit: 10;stroke-width: 0.25px"/>
  <path d="M792.6498,238.86537l78.40328,17.71116a2.27836,2.27836,0,0,1,1.94826,1.61676c.05091.43284-1.50829,1.71654-2.16,2.10139" transform="translate(-66.04255 -212.55246)" style="fill: none;stroke: #0c6d7b;stroke-miterlimit: 10"/>
  <path d="M602.80328,258.1438v30.09338l-36.62213,3.285.0307-31.32148,36.59143-2.05694m1-1.0578-38.59051,2.16931-.03272,33.36072,38.62323-3.46454V257.086Z" transform="translate(-66.04255 -212.55246)" style="fill: #0c6d7b"/>
  <polyline points="537.426 44.894 472.834 0.998 433.04 0.998 498.665 46.934 498.665 79.105 433.04 32.924 433.04 0.998" style="fill: none;stroke: #0c6d7b;stroke-miterlimit: 10"/>
  <polyline points="537.761 65.576 498.665 68.396 433.04 23.491" style="fill: none;stroke: #0c6d7b;stroke-miterlimit: 10"/>
  <polyline points="460.927 52.549 460.927 21.153 502.893 21.153" style="fill: none;stroke: #0c6d7b;stroke-miterlimit: 10"/>
  <polyline points="481.91 67.554 481.91 35.206 521.747 33.796" style="fill: none;stroke: #0c6d7b;stroke-miterlimit: 10"/>
  <g>
    <polyline points="502.893 183.83 502.893 98.208 492.382 99.679 468.645 138.712 422.568 159.734 338.068 168.319" style="fill: none;stroke: #0c6d7b;stroke-miterlimit: 10"/>
    <polyline points="502.893 120.963 523.393 130.934 523.393 85.328 513.738 78.139 498.665 79.105 485.071 69.539 485.071 84.34 502.893 98.208 479.597 80.081 467.249 80.081 492.382 99.679" style="fill: none;stroke: #0c6d7b;stroke-miterlimit: 10"/>
  </g>
  <path d="M533.11673,333.25379V292.63348c0-.02651-.14035-.04823-.14344.03148l-6.00358,16.66419V327.711l-25.79282,19.28543L466.27,352.69122l-64.47806,2.10884-68.401,10.1584-23.27129.96747,13.80466,8.83223-13.80466,1.727V365.92593" transform="translate(-66.04255 -212.55246)" style="fill: none;stroke: #0c6d7b;stroke-miterlimit: 10"/>
  <path d="M616.92235,296.63116l-27.48719,1.24965-9.65491-7.18919,24.023-1.54014V267.48624s46.591,3.81569,58.70086,6.6685l-45.58179,18.47874Z" transform="translate(-66.04255 -212.55246)" style="fill: none;stroke: #0c6d7b;stroke-miterlimit: 10"/>
  <g>
    <path d="M491.79922,320.87494v26.63812l-21.73672,3.54621V322.24164l21.73672-1.3667m1-1.06488-23.73672,1.49249v30.93311l23.73672-3.8725v-28.5531Z" transform="translate(-66.04255 -212.55246)" style="fill: #0c6d7b"/>
    <path d="M461.76868,297.64819,490.041,318.98151l-20.65914,1.299L441.984,298.64484l19.7847-.99665m.31244-1.017L439.27527,297.78l29.78723,23.52252,23.73672-1.49249-30.7181-23.1789Z" transform="translate(-66.04255 -212.55246)" style="fill: #0c6d7b"/>
    <path d="M440.27527,299.84393l27.78723,21.94312v29.59851l-1.88974.30829-16.5751.54211-9.32239-6.81213v-45.5799m-1-2.0639v48.15161l10.01065,7.31506,16.984-.55548,2.79254-.45556V321.30255L439.27527,297.78Z" transform="translate(-66.04255 -212.55246)" style="fill: #0c6d7b"/>
  </g>
  <path d="M452.07446,327.38852" transform="translate(-66.04255 -212.55246)" style="fill: none;stroke: red;stroke-miterlimit: 10;stroke-width: 0.25px"/>
  <g>
    <path d="M357.75659,340.07733v20.25159l-18.0133,2.67517V341.11133l18.0133-1.034m1-1.05908-20.0133,1.14886v23.99646l20.0133-2.97222v-22.1731Z" transform="translate(-66.04255 -212.55246)" style="fill: #0c6d7b"/>
    <path d="M340.449,323.87915l15.857,14.27814-17.154.98474-13.56919-14.42584,14.86628-.837m.35961-1.02185-17.4244.98108,15.35907,16.32873,20.0133-1.14886-17.948-16.161Z" transform="translate(-66.04255 -212.55246)" style="fill: #0c6d7b"/>
    <path d="M324.38422,326.361l13.35907,14.20252v22.73755l-4.44684.6604-8.91223.37054V326.361m-1-2.52264v41.53607l10.00665-.416,5.35242-.79487V340.16711l-15.35907-16.32873Z" transform="translate(-66.04255 -212.55246)" style="fill: #0c6d7b"/>
  </g>
  <g>
    <path d="M277.23792,357.3338v22.25385L164.27774,393.28247V366.29822l112.96018-8.96442m1-1.08252-114.96018,9.12317V394.411l114.96018-13.93726V356.25128Z" transform="translate(-66.04255 -212.55246)" style="fill: #0c6d7b"/>
    <path d="M147.52242,355.499l14.75532,10.39417V393.6004l-3.14877.666V383.96442l-.1482-.241-11.45835-18.6319V355.499m-1-1.92761v11.803L158.129,384.24731V395.5l5.14877-1.089V365.37445l-16.75532-11.803Z" transform="translate(-66.04255 -212.55246)" style="fill: #0c6d7b"/>
    <path d="M220.41306,309.97809l55.27713,45.47223L163.5585,364.34906l-14.12161-9.94781,34.37846-2.02735.52405-.03094.27217-.44886,9.30853-15.35278.44224-.72943-.65055-.5517-27.805-23.58154,54.50629-1.70056m.34478-1.01123-57.4801,1.79333L193.065,336.02283l-9.30852,15.35278-37.23406,2.1958,16.75532,11.803,114.96018-9.12317-57.48008-47.28442Z" transform="translate(-66.04255 -212.55246)" style="fill: #0c6d7b"/>
    <path d="M164.27774,312.91949l27.48993,23.31427-6.13748,10.12275-21.35245-29.45075v-3.98627m-1-2.1593v6.46991l22.42679,30.93256,7.36047-12.13983-29.78726-25.26264Z" transform="translate(-66.04255 -212.55246)" style="fill: #0c6d7b"/>
    <line x1="124.50972" y1="127.61468" x2="97.23519" y2="104.67767" style="fill: none;stroke: #0c6d7b;stroke-miterlimit: 10"/>
  </g>
  <polygon points="101.894 181.294 101.894 160.468 150.759 156.276 150.759 175.37 101.894 181.294" style="fill: none;stroke: #0c6d7b;stroke-miterlimit: 10"/>
  <polygon points="159.22 174.344 159.22 154.341 208.007 151.181 208.007 168.651 159.22 174.344" style="fill: none;stroke: #0c6d7b;stroke-miterlimit: 10"/>
  <path d="M240.27662,309.16792c-2.943-5.3466,2.33237-9.9334,2.79258-10.31964a19.891,19.891,0,0,1,13.96277-3.8699c7.12413.73107,13.07654,5.18385,13.03189,10.31964-.05478,6.3012-9.1124,10.80353-17.22074,10.31964C247.85344,315.31989,242.43371,313.08674,240.27662,309.16792Z" transform="translate(-66.04255 -212.55246)" style="fill: #f49913"/>
  <path d="M279.95375,303.42356c-2.943-5.3466,2.33237-9.9334,2.79258-10.31963a19.891,19.891,0,0,1,13.96278-3.8699c7.12412.73106,13.07653,5.18384,13.03189,10.31963-.05479,6.3012-9.11241,10.80353-17.22074,10.31964C287.53057,309.57553,282.11084,307.34238,279.95375,303.42356Z" transform="translate(-66.04255 -212.55246)" style="fill: #f49913"/>
  <ellipse cx="316.47225" cy="67.09592" rx="57.7128" ry="39.9886" style="fill: #f49913"/>
  <path d="M74.14711,464.60747c2.13823,7.97486,6.22916,22.47486,20.0149,36.76373a127.8792,127.8792,0,0,0,13.40142,11.8145,174.61565,174.61565,0,0,0,29.18505,17.69321c65.84609,32.69416,141.02388,49.34075,141.024,49.34078,17.83015,3.88681,75.55764,15.921,169.552,21.768,126.96427,7.89793,227.04339-1.28168,282.87547-8.22349,59.58276-7.40815,110.6785-17.47784,162.63283-34.82876C957.11914,537.466,982.735,518.2021,997.5535,498.95254q.76756-.99708,1.49189-1.98719a81.68541,81.68541,0,0,0,16.00389-42.60418q3.63746-50.33447,7.27493-100.66895c.97644-13.51176-3.41886-26.98526-13.02374-38.76382q-.11333-.139-.22767-.27817c-3.82883-4.6607-9.18867-8.96923-14.4457-12.71042a188.95833,188.95833,0,0,0-28.81536-16.64967,642.95771,642.95771,0,0,0-92.876-35.21829c-38.675-11.41092-77.40652-19.12089-127.75934-25.396-191.68132-23.888-368.16152-4.101-396.89192-.72557-.00012,0-105.26607,12.36736-207.34718,51.51759-18.65462,7.15443-39.58567,17.14577-55.502,34.10318q-.7784.82931-1.51634,1.654c-10.692,11.94258-16.35985,25.72888-16.8697,39.77824C65.08568,405.11053,69.12,445.858,74.14711,464.60747Z" transform="translate(-66.04255 -212.55246)" style="fill: none;stroke: red;stroke-miterlimit: 10"/>
  <path d="M622.30166,553.29188s-1.56637-6.486,13.259-7.61216,40.90746-2.97759,40.90746-2.97759l-49.9149,14.10638Z" transform="translate(-66.04255 -212.55246)" style="fill: #71c3bb"/>
  <polygon points="578.951 357.186 578.951 352.876 632.009 350.499 632.009 354.526 578.951 357.186" style="fill: #71c3bb"/>
  <polygon points="578.895 357.186 565.255 345.979 568.738 341.799 580.347 354.123 578.895 357.186" style="fill: #71c3bb"/>
  <path d="M622.26815,553.26221c-.13873-7.06509,11.78781-7.4682,11.78781-7.4682l43.51731-3.30551-41.71981-31.17742a10.61979,10.61979,0,0,0-6.7597-1.85451c-10.18559.49543-36.49029,1.96859-41.34767,4.16919-6.05054,2.74116-1.8617,7.41724-1.8617,7.41724l59.10907,52.34333V569.7388L632.776,558.93543s-2.65008-4.82226,53.873-7.73973c0,0,.11636-4.83733-9.0758-8.7072" transform="translate(-66.04255 -212.55246)" style="fill: #71c3bb;stroke: #f49913;stroke-miterlimit: 10"/>
  <path d="M635.91766,557.323l10.47208,9.35218s44.7391-1.04809,50.78959-3.14427-10.53026-12.33519-10.53026-12.33519S639.87378,553.61436,635.91766,557.323Z" transform="translate(-66.04255 -212.55246)" style="fill: #71c3bb;stroke: #f49913;stroke-miterlimit: 10"/>
  <g>
    <path d="M804.4502,455.68555c5.53222-1.48535,70.74121-18.98731,94.207-24.98389,25.30859-6.46728,78.82617-32.4165,92.10156-49.79541a186.34435,186.34435,0,0,1,14.25-16.85693,47.129,47.129,0,0,0,4.85254-5.66993c.3584,4.90967-1.958,23.71631-24.2207,42.24219-28.13477,23.41211-137.74024,64.03418-181.19043,67.22412Z" transform="translate(-66.04255 -212.55246)" style="fill: #f49913"/>
    <path d="M1009.306,359.97284a38.52852,38.52852,0,0,1-2.42029,11.45544c-2.55585,7.083-8.37176,17.83051-21.5647,28.8089-12.71594,10.58142-45.02557,26.26026-84.32031,40.91791-39.05163,14.567-75.66138,24.52426-96.05066,26.15076V456.06906c7.57855-2.03451,70.80561-18.999,93.83069-24.8829,25.3717-6.48352,79.04443-32.52442,92.37567-49.97681a185.925,185.925,0,0,1,14.21613-16.81653c1.53357-1.62335,2.78241-2.94525,3.93347-4.42m.81409-2.89044c-3.64594,5.75671-7.17237,7.04327-19.75837,23.52-13.12445,17.18164-66.01873,43.01947-91.82855,49.61493C873.858,436.52283,803.95,455.30215,803.95,455.30215v13.08c44.33893-2.9776,154.72467-44.67056,182.01062-67.37625,26.18885-21.79285,24.63086-43.13062,24.15943-43.92346Z" transform="translate(-66.04255 -212.55246)" style="fill: #e6393d"/>
  </g>
  <g>
    <path d="M794.35254,451.92871c6.16992-1.4541,30.42676-7.32129,75.92773-20.083,53.97266-15.13818,91.57618-41.646,105.23828-52.34033,12.69336-9.93652,17.375-20.61621,18.19727-22.69141h.07227l.082-.40332c2.80371-11.61132-.15723-22.08593-8.80567-31.11572-.03906-.041-.0791-.08252-.11816-.12353l15.97168-.31592c16.11816,13.96338,8.81348,32.876,8.73828,33.06592-6.874,15.44629-29.30957,32.33691-34.49414,35.68945-1.23633.7998-2.45313,1.6582-3.71973,2.62451-27.4414,20.94873-90.16406,40.23-97.22558,42.35986-20.55664,6.19971-67.54785,16.82422-70.15918,17.05225Z" transform="translate(-66.04255 -212.55246)" style="fill: #f4c484"/>
    <path d="M1000.73566,325.35907c15.648,13.70093,8.75866,31.61633,8.47076,32.34131-6.34,14.24786-27.37189,31.00036-34.31586,35.49066-1.24945.808-2.47644,1.67383-3.75109,2.64685-27.369,20.89325-90.01355,40.15131-97.06653,42.27844-20.20581,6.09388-66.51538,16.57776-69.94782,17.02149L796.0434,452.041c8.12616-1.94281,32.07409-7.8505,74.37243-19.71415,54.06067-15.16266,91.726-41.71551,105.41059-52.42785,12.396-9.70368,17.12609-19.85645,18.23376-22.587l.10712-.00037.18475-.76525c2.77832-11.50678-.00384-21.89667-8.26977-30.897l14.65338-.29028m.36432-1.00745-17.16.34c-.63452.28479,14.407,11.04846,9.44,31.62l-.00085.00263.00085-.02265s-4.05889,11.77375-18.17,22.82S923.9787,416.2652,870.14575,431.364C816.42664,446.43091,792.65,451.81158,792.65,451.81158l11.3,4.33c.00165.00641.01721.00958.04627.00958,1.7005,0,49.77307-10.86694,70.36541-17.07745,19.57447-5.9035,72.68592-23.58624,97.38453-42.441,1.19818-.91467,2.42163-1.78345,3.68737-2.602,5.63526-3.644,27.89142-20.65332,34.68647-35.92383,0,0,7.7608-19.37109-9.02008-33.75531Z" transform="translate(-66.04255 -212.55246)" style="fill: #e6393d"/>
  </g>
</svg>
